<mxfile modified="2022-05-02T20:18:34.070Z" host="app.diagrams.net" agent="5.0 (Windows NT 10.0; Win64; x64) AppleWebKit/537.36 (KHTML, like Gecko) Chrome/100.0.4896.127 Safari/537.36 Edg/100.0.1185.50" etag="RuvS7hp8BZj5bJyBt4eK" compressed="false" version="17.5.0" type="google">
  <diagram name="Qualities/Addressed/Usability" id="h6ycylG9nxu2J47n6hdn">
    <mxGraphModel grid="1" page="1" gridSize="10" guides="1" tooltips="1" connect="1" arrows="1" fold="1" pageScale="1" pageWidth="827" pageHeight="1169" math="0" shadow="0">
      <root>
        <mxCell id="R_PoujA9XYhNh4bMHHEq-0" />
        <mxCell id="R_PoujA9XYhNh4bMHHEq-6" value="Diagrams" parent="R_PoujA9XYhNh4bMHHEq-0" />
        <UserObject label="Quality" id="R_PoujA9XYhNh4bMHHEq-55">
          <mxCell style="strokeColor=#bac8d3;html=1;fontColor=#2f5b7c;fontSize=12;align=left;horizontal=0;fillColor=#E6E6E6;" vertex="1" parent="R_PoujA9XYhNh4bMHHEq-6">
            <mxGeometry x="140" y="180" width="20" height="100" as="geometry" />
          </mxCell>
        </UserObject>
        <UserObject label="Feature/Control" id="R_PoujA9XYhNh4bMHHEq-56">
          <mxCell style="strokeColor=#bac8d3;html=1;fontColor=#2f5b7c;fontSize=12;align=left;horizontal=0;fontStyle=2" vertex="1" parent="R_PoujA9XYhNh4bMHHEq-6">
            <mxGeometry x="160" y="180" width="20" height="100" as="geometry" />
          </mxCell>
        </UserObject>
        <UserObject label="Group" id="R_PoujA9XYhNh4bMHHEq-57">
          <mxCell style="strokeColor=#666666;html=1;fontColor=#333333;fontSize=12;align=left;horizontal=0;fillColor=#f5f5f5;" vertex="1" parent="R_PoujA9XYhNh4bMHHEq-6">
            <mxGeometry x="120" y="180" width="20" height="100" as="geometry" />
          </mxCell>
        </UserObject>
        <UserObject label="Risk Addressed" id="3WIg-UBAxyrME9ytdWcx-0">
          <mxCell style="strokeColor=#bac8d3;html=1;fontColor=#2f5b7c;fontSize=12;align=left;horizontal=0;fontStyle=2" vertex="1" parent="R_PoujA9XYhNh4bMHHEq-6">
            <mxGeometry x="180" y="180" width="20" height="100" as="geometry" />
          </mxCell>
        </UserObject>
        <UserObject label="Recognizability" id="R_PoujA9XYhNh4bMHHEq-14">
          <mxCell style="strokeColor=#bac8d3;html=1;fontColor=#2f5b7c;fontSize=12;align=left;fillColor=#E6E6E6;" vertex="1" parent="R_PoujA9XYhNh4bMHHEq-6">
            <mxGeometry x="140" y="300" width="540" height="20" as="geometry" />
          </mxCell>
        </UserObject>
        <UserObject label="Learnability" id="R_PoujA9XYhNh4bMHHEq-15">
          <mxCell style="strokeColor=#bac8d3;html=1;fontColor=#2f5b7c;fontSize=12;align=left;fillColor=#E6E6E6;" vertex="1" parent="R_PoujA9XYhNh4bMHHEq-6">
            <mxGeometry x="140" y="440" width="540" height="20" as="geometry" />
          </mxCell>
        </UserObject>
        <UserObject label="Operability" id="R_PoujA9XYhNh4bMHHEq-16">
          <mxCell style="strokeColor=#bac8d3;html=1;fontColor=#2f5b7c;fontSize=12;align=left;fillColor=#E6E6E6;" vertex="1" parent="R_PoujA9XYhNh4bMHHEq-6">
            <mxGeometry x="140" y="580" width="540" height="20" as="geometry" />
          </mxCell>
        </UserObject>
        <UserObject label="Deployability" id="R_PoujA9XYhNh4bMHHEq-17">
          <mxCell style="strokeColor=#bac8d3;html=1;fontColor=#2f5b7c;fontSize=12;align=left;fillColor=#E6E6E6;" vertex="1" parent="R_PoujA9XYhNh4bMHHEq-6">
            <mxGeometry x="140" y="760" width="540" height="20" as="geometry" />
          </mxCell>
        </UserObject>
        <UserObject label="Configurability" id="R_PoujA9XYhNh4bMHHEq-18">
          <mxCell style="strokeColor=#bac8d3;html=1;fontColor=#2f5b7c;fontSize=12;align=left;fillColor=#E6E6E6;" vertex="1" parent="R_PoujA9XYhNh4bMHHEq-6">
            <mxGeometry x="140" y="860" width="540" height="20" as="geometry" />
          </mxCell>
        </UserObject>
        <UserObject label="Org CSS Framework is based on Industry standard frameworks" id="R_PoujA9XYhNh4bMHHEq-28">
          <mxCell style="strokeColor=#bac8d3;html=1;fontColor=#2f5b7c;fontSize=12;align=left;fontStyle=2" vertex="1" parent="R_PoujA9XYhNh4bMHHEq-6">
            <mxGeometry x="160" y="400" width="520" height="20" as="geometry" />
          </mxCell>
        </UserObject>
        <UserObject label="Using Enterprise Logo &amp;amp; Links" id="R_PoujA9XYhNh4bMHHEq-30">
          <mxCell style="strokeColor=#bac8d3;html=1;fontColor=#2f5b7c;fontSize=12;align=left;fontStyle=2" vertex="1" parent="R_PoujA9XYhNh4bMHHEq-6">
            <mxGeometry x="160" y="320" width="520" height="20" as="geometry" />
          </mxCell>
        </UserObject>
        <UserObject label="Uses same UI BREAD flow throughout" id="R_PoujA9XYhNh4bMHHEq-31">
          <mxCell style="strokeColor=#bac8d3;html=1;fontColor=#2f5b7c;fontSize=12;align=left;fontStyle=2" vertex="1" parent="R_PoujA9XYhNh4bMHHEq-6">
            <mxGeometry x="160" y="460" width="520" height="20" as="geometry" />
          </mxCell>
        </UserObject>
        <UserObject label="Deployed by 100% automated pipeline." id="R_PoujA9XYhNh4bMHHEq-32">
          <mxCell style="strokeColor=#bac8d3;html=1;fontColor=#2f5b7c;fontSize=12;align=left;fontStyle=2" vertex="1" parent="R_PoujA9XYhNh4bMHHEq-6">
            <mxGeometry x="160" y="780" width="520" height="20" as="geometry" />
          </mxCell>
        </UserObject>
        <UserObject label="@ System, Organisation, Principal, Member" id="R_PoujA9XYhNh4bMHHEq-33">
          <mxCell style="strokeColor=#bac8d3;html=1;fontColor=#2f5b7c;fontSize=12;align=left;fontStyle=2" vertex="1" parent="R_PoujA9XYhNh4bMHHEq-6">
            <mxGeometry x="160" y="880" width="520" height="20" as="geometry" />
          </mxCell>
        </UserObject>
        <UserObject label="SSO using well-known IdPs is used." id="R_PoujA9XYhNh4bMHHEq-45">
          <mxCell style="strokeColor=#bac8d3;html=1;fontColor=#2f5b7c;fontSize=12;align=left;fontStyle=2" vertex="1" parent="R_PoujA9XYhNh4bMHHEq-6">
            <mxGeometry x="160" y="600" width="520" height="20" as="geometry" />
          </mxCell>
        </UserObject>
        <UserObject label="Powerful Search finds entry-point Records." id="R_PoujA9XYhNh4bMHHEq-46">
          <mxCell style="strokeColor=#bac8d3;html=1;fontColor=#2f5b7c;fontSize=12;align=left;fontStyle=2" vertex="1" parent="R_PoujA9XYhNh4bMHHEq-6">
            <mxGeometry x="160" y="680" width="520" height="20" as="geometry" />
          </mxCell>
        </UserObject>
        <UserObject label="Soft Delete used: new users can undo errors." id="R_PoujA9XYhNh4bMHHEq-47">
          <mxCell style="strokeColor=#bac8d3;html=1;fontColor=#2f5b7c;fontSize=12;align=left;fontStyle=2" vertex="1" parent="R_PoujA9XYhNh4bMHHEq-6">
            <mxGeometry x="160" y="540" width="520" height="20" as="geometry" />
          </mxCell>
        </UserObject>
        <UserObject label="ISO-25010/Usability" id="R_PoujA9XYhNh4bMHHEq-49">
          <mxCell style="strokeColor=#666666;html=1;fontColor=#333333;fontSize=12;align=left;fontStyle=1;fillColor=#CCCCCC;" vertex="1" parent="R_PoujA9XYhNh4bMHHEq-6">
            <mxGeometry x="120" y="280" width="560" height="20" as="geometry" />
          </mxCell>
        </UserObject>
        <UserObject label="Using Organisation&#39;s CSS Framework" id="R_PoujA9XYhNh4bMHHEq-58">
          <mxCell style="strokeColor=#bac8d3;html=1;fontColor=#2f5b7c;fontSize=12;align=left;fontStyle=2" vertex="1" parent="R_PoujA9XYhNh4bMHHEq-6">
            <mxGeometry x="160" y="360" width="520" height="20" as="geometry" />
          </mxCell>
        </UserObject>
        <UserObject label="No Deployment action by Hand." id="R_PoujA9XYhNh4bMHHEq-62">
          <mxCell style="strokeColor=#bac8d3;html=1;fontColor=#2f5b7c;fontSize=12;align=left;fontStyle=2" vertex="1" parent="R_PoujA9XYhNh4bMHHEq-6">
            <mxGeometry x="160" y="820" width="520" height="20" as="geometry" />
          </mxCell>
        </UserObject>
        <UserObject label="Human-readable error msgs are displayed." id="R_PoujA9XYhNh4bMHHEq-69">
          <mxCell style="strokeColor=#bac8d3;html=1;fontColor=#2f5b7c;fontSize=12;align=left;fontStyle=2" vertex="1" parent="R_PoujA9XYhNh4bMHHEq-6">
            <mxGeometry x="160" y="500" width="520" height="20" as="geometry" />
          </mxCell>
        </UserObject>
        <UserObject label="Password reset is provided by IdP" id="R_PoujA9XYhNh4bMHHEq-72">
          <mxCell style="strokeColor=#bac8d3;html=1;fontColor=#2f5b7c;fontSize=12;align=left;fontStyle=2" vertex="1" parent="R_PoujA9XYhNh4bMHHEq-6">
            <mxGeometry x="160" y="640" width="520" height="20" as="geometry" />
          </mxCell>
        </UserObject>
        <UserObject label="Customer Support contact is provided." id="R_PoujA9XYhNh4bMHHEq-73">
          <mxCell style="strokeColor=#bac8d3;html=1;fontColor=#2f5b7c;fontSize=12;align=left;fontStyle=2" vertex="1" parent="R_PoujA9XYhNh4bMHHEq-6">
            <mxGeometry x="160" y="720" width="520" height="20" as="geometry" />
          </mxCell>
        </UserObject>
        <UserObject label="&lt;font style=&quot;font-size: 12px&quot;&gt;Keeping passwords internally just begs to be hacked.&lt;/font&gt;" id="ESOBvNc76D20uMSK7XI4-6">
          <mxCell style="strokeColor=#bac8d3;html=1;fontColor=#2f5b7c;fontSize=12;align=left;fontStyle=2" vertex="1" parent="R_PoujA9XYhNh4bMHHEq-6">
            <mxGeometry x="180" y="620" width="500" height="20" as="geometry" />
          </mxCell>
        </UserObject>
        <UserObject label="&lt;font style=&quot;font-size: 12px&quot;&gt;Password reset is usually the #1 cause for Support.&lt;/font&gt;" id="ESOBvNc76D20uMSK7XI4-7">
          <mxCell style="strokeColor=#bac8d3;html=1;fontColor=#2f5b7c;fontSize=12;align=left;fontStyle=2" vertex="1" parent="R_PoujA9XYhNh4bMHHEq-6">
            <mxGeometry x="180" y="660" width="500" height="20" as="geometry" />
          </mxCell>
        </UserObject>
        <UserObject label="Navigation takes attention, memory and time.&amp;nbsp;" id="ESOBvNc76D20uMSK7XI4-8">
          <mxCell style="strokeColor=#bac8d3;html=1;fontColor=#2f5b7c;fontSize=12;align=left;fontStyle=2" vertex="1" parent="R_PoujA9XYhNh4bMHHEq-6">
            <mxGeometry x="180" y="700" width="500" height="20" as="geometry" />
          </mxCell>
        </UserObject>
        <UserObject label="Frustrated users stop using systems." id="ESOBvNc76D20uMSK7XI4-9">
          <mxCell style="strokeColor=#bac8d3;html=1;fontColor=#2f5b7c;fontSize=12;align=left;fontStyle=2" vertex="1" parent="R_PoujA9XYhNh4bMHHEq-6">
            <mxGeometry x="180" y="740" width="500" height="20" as="geometry" />
          </mxCell>
        </UserObject>
        <UserObject label="Contractors leave. Manual processes get forgotten." id="ESOBvNc76D20uMSK7XI4-10">
          <mxCell style="strokeColor=#bac8d3;html=1;fontColor=#2f5b7c;fontSize=12;align=left;fontStyle=2" vertex="1" parent="R_PoujA9XYhNh4bMHHEq-6">
            <mxGeometry x="180" y="800" width="500" height="20" as="geometry" />
          </mxCell>
        </UserObject>
        <UserObject label="Even the most &quot;&lt;span style=&quot;font-style: normal; font-size: 12px;&quot;&gt;obvious&lt;/span&gt;&quot; Manual process gets lost." id="ESOBvNc76D20uMSK7XI4-11">
          <mxCell style="strokeColor=#bac8d3;html=1;fontColor=#2f5b7c;fontSize=12;align=left;fontStyle=2" vertex="1" parent="R_PoujA9XYhNh4bMHHEq-6">
            <mxGeometry x="180" y="840" width="500" height="20" as="geometry" />
          </mxCell>
        </UserObject>
        <UserObject label="&lt;font style=&quot;font-size: 12px;&quot;&gt;Users feel disempowered if they can&#39;t set preferences&lt;/font&gt;" id="ESOBvNc76D20uMSK7XI4-12">
          <mxCell style="strokeColor=#bac8d3;html=1;fontColor=#2f5b7c;fontSize=12;align=left;fontStyle=2" vertex="1" parent="R_PoujA9XYhNh4bMHHEq-6">
            <mxGeometry x="180" y="900" width="500" height="20" as="geometry" />
          </mxCell>
        </UserObject>
        <UserObject label="Note" id="2fDW1WyvW7qcdETNMVSm-0">
          <mxCell style="strokeColor=#bac8d3;html=1;fontColor=#2f5b7c;fontSize=12;align=left;horizontal=0;fontStyle=2" vertex="1" parent="R_PoujA9XYhNh4bMHHEq-6">
            <mxGeometry x="200" y="180" width="20" height="100" as="geometry" />
          </mxCell>
        </UserObject>
        <UserObject label="Infrastructure" id="PhZptisgSt4uzMN1Ap9i-0">
          <mxCell style="strokeColor=#bac8d3;html=1;fontColor=#2f5b7c;fontSize=12;align=left;horizontal=0;fontStyle=2" vertex="1" parent="R_PoujA9XYhNh4bMHHEq-6">
            <mxGeometry x="600" y="180" width="20" height="100" as="geometry" />
          </mxCell>
        </UserObject>
        <UserObject label="Info Svc" id="PhZptisgSt4uzMN1Ap9i-1">
          <mxCell style="strokeColor=#bac8d3;html=1;fontColor=#2f5b7c;fontSize=12;align=left;horizontal=0;fontStyle=2" vertex="1" parent="R_PoujA9XYhNh4bMHHEq-6">
            <mxGeometry x="640" y="180" width="20" height="100" as="geometry" />
          </mxCell>
        </UserObject>
        <UserObject label="Info Svc Client" id="PhZptisgSt4uzMN1Ap9i-2">
          <mxCell style="strokeColor=#bac8d3;html=1;fontColor=#2f5b7c;fontSize=12;align=left;horizontal=0;fontStyle=2" vertex="1" parent="R_PoujA9XYhNh4bMHHEq-6">
            <mxGeometry x="660" y="180" width="20" height="100" as="geometry" />
          </mxCell>
        </UserObject>
        <UserObject label="Delivery Service" id="PhZptisgSt4uzMN1Ap9i-3">
          <mxCell style="strokeColor=#bac8d3;html=1;fontColor=#2f5b7c;fontSize=12;align=left;horizontal=0;fontStyle=2" vertex="1" parent="R_PoujA9XYhNh4bMHHEq-6">
            <mxGeometry x="620" y="180" width="20" height="100" as="geometry" />
          </mxCell>
        </UserObject>
        <UserObject label="Processes" id="PhZptisgSt4uzMN1Ap9i-5">
          <mxCell style="strokeColor=#bac8d3;html=1;fontColor=#2f5b7c;fontSize=12;align=left;horizontal=0;fontStyle=2" vertex="1" parent="R_PoujA9XYhNh4bMHHEq-6">
            <mxGeometry x="580" y="180" width="20" height="100" as="geometry" />
          </mxCell>
        </UserObject>
        <mxCell id="PhZptisgSt4uzMN1Ap9i-7" value="&lt;b&gt;X&lt;/b&gt;" style="text;html=1;strokeColor=#666666;fillColor=#f5f5f5;align=center;verticalAlign=middle;whiteSpace=wrap;rounded=0;fontSize=12;fontColor=#333333;" vertex="1" parent="R_PoujA9XYhNh4bMHHEq-6">
          <mxGeometry x="660" y="320" width="20" height="20" as="geometry" />
        </mxCell>
        <mxCell id="PhZptisgSt4uzMN1Ap9i-8" value="&lt;b&gt;X&lt;/b&gt;" style="text;html=1;strokeColor=#666666;fillColor=#f5f5f5;align=center;verticalAlign=middle;whiteSpace=wrap;rounded=0;fontSize=12;fontColor=#333333;" vertex="1" parent="R_PoujA9XYhNh4bMHHEq-6">
          <mxGeometry x="660" y="360" width="20" height="20" as="geometry" />
        </mxCell>
        <mxCell id="PhZptisgSt4uzMN1Ap9i-9" value="&lt;b&gt;X&lt;/b&gt;" style="text;html=1;strokeColor=#666666;fillColor=#f5f5f5;align=center;verticalAlign=middle;whiteSpace=wrap;rounded=0;fontSize=12;fontColor=#333333;" vertex="1" parent="R_PoujA9XYhNh4bMHHEq-6">
          <mxGeometry x="660" y="400" width="20" height="20" as="geometry" />
        </mxCell>
        <mxCell id="PhZptisgSt4uzMN1Ap9i-10" value="&lt;b&gt;X&lt;/b&gt;" style="text;html=1;strokeColor=#666666;fillColor=#f5f5f5;align=center;verticalAlign=middle;whiteSpace=wrap;rounded=0;fontSize=12;fontColor=#333333;" vertex="1" parent="R_PoujA9XYhNh4bMHHEq-6">
          <mxGeometry x="660" y="460" width="20" height="20" as="geometry" />
        </mxCell>
        <mxCell id="PhZptisgSt4uzMN1Ap9i-11" value="&lt;b&gt;X&lt;/b&gt;" style="text;html=1;strokeColor=#666666;fillColor=#f5f5f5;align=center;verticalAlign=middle;whiteSpace=wrap;rounded=0;fontSize=12;fontColor=#333333;" vertex="1" parent="R_PoujA9XYhNh4bMHHEq-6">
          <mxGeometry x="660" y="500" width="20" height="20" as="geometry" />
        </mxCell>
        <mxCell id="PhZptisgSt4uzMN1Ap9i-12" value="&lt;b&gt;X&lt;/b&gt;" style="text;html=1;strokeColor=#666666;fillColor=#f5f5f5;align=center;verticalAlign=middle;whiteSpace=wrap;rounded=0;fontSize=12;fontColor=#333333;" vertex="1" parent="R_PoujA9XYhNh4bMHHEq-6">
          <mxGeometry x="640" y="500" width="20" height="20" as="geometry" />
        </mxCell>
        <mxCell id="PhZptisgSt4uzMN1Ap9i-13" value="&lt;b&gt;X&lt;/b&gt;" style="text;html=1;strokeColor=#666666;fillColor=#f5f5f5;align=center;verticalAlign=middle;whiteSpace=wrap;rounded=0;fontSize=12;fontColor=#333333;" vertex="1" parent="R_PoujA9XYhNh4bMHHEq-6">
          <mxGeometry x="640" y="540" width="20" height="20" as="geometry" />
        </mxCell>
        <mxCell id="PhZptisgSt4uzMN1Ap9i-14" value="&lt;b&gt;X&lt;/b&gt;" style="text;html=1;strokeColor=#666666;fillColor=#f5f5f5;align=center;verticalAlign=middle;whiteSpace=wrap;rounded=0;fontSize=12;fontColor=#333333;" vertex="1" parent="R_PoujA9XYhNh4bMHHEq-6">
          <mxGeometry x="660" y="540" width="20" height="20" as="geometry" />
        </mxCell>
        <mxCell id="PhZptisgSt4uzMN1Ap9i-15" value="&lt;b&gt;X&lt;/b&gt;" style="text;html=1;strokeColor=#666666;fillColor=#f5f5f5;align=center;verticalAlign=middle;whiteSpace=wrap;rounded=0;fontSize=12;fontColor=#333333;" vertex="1" parent="R_PoujA9XYhNh4bMHHEq-6">
          <mxGeometry x="660" y="600" width="20" height="20" as="geometry" />
        </mxCell>
        <mxCell id="PhZptisgSt4uzMN1Ap9i-16" value="&lt;b&gt;X&lt;/b&gt;" style="text;html=1;strokeColor=#666666;fillColor=#f5f5f5;align=center;verticalAlign=middle;whiteSpace=wrap;rounded=0;fontSize=12;fontColor=#333333;" vertex="1" parent="R_PoujA9XYhNh4bMHHEq-6">
          <mxGeometry x="640" y="640" width="20" height="20" as="geometry" />
        </mxCell>
        <mxCell id="PhZptisgSt4uzMN1Ap9i-17" value="&lt;b&gt;X&lt;/b&gt;" style="text;html=1;strokeColor=#666666;fillColor=#f5f5f5;align=center;verticalAlign=middle;whiteSpace=wrap;rounded=0;fontSize=12;fontColor=#333333;" vertex="1" parent="R_PoujA9XYhNh4bMHHEq-6">
          <mxGeometry x="660" y="640" width="20" height="20" as="geometry" />
        </mxCell>
        <mxCell id="PhZptisgSt4uzMN1Ap9i-18" value="&lt;b&gt;X&lt;/b&gt;" style="text;html=1;strokeColor=#666666;fillColor=#f5f5f5;align=center;verticalAlign=middle;whiteSpace=wrap;rounded=0;fontSize=12;fontColor=#333333;" vertex="1" parent="R_PoujA9XYhNh4bMHHEq-6">
          <mxGeometry x="660" y="680" width="20" height="20" as="geometry" />
        </mxCell>
        <mxCell id="PhZptisgSt4uzMN1Ap9i-19" value="&lt;b&gt;X&lt;/b&gt;" style="text;html=1;strokeColor=#666666;fillColor=#f5f5f5;align=center;verticalAlign=middle;whiteSpace=wrap;rounded=0;fontSize=12;fontColor=#333333;" vertex="1" parent="R_PoujA9XYhNh4bMHHEq-6">
          <mxGeometry x="640" y="680" width="20" height="20" as="geometry" />
        </mxCell>
        <mxCell id="PhZptisgSt4uzMN1Ap9i-20" value="&lt;b&gt;X&lt;/b&gt;" style="text;html=1;strokeColor=#666666;fillColor=#f5f5f5;align=center;verticalAlign=middle;whiteSpace=wrap;rounded=0;fontSize=12;fontColor=#333333;" vertex="1" parent="R_PoujA9XYhNh4bMHHEq-6">
          <mxGeometry x="580" y="720" width="20" height="20" as="geometry" />
        </mxCell>
        <mxCell id="PhZptisgSt4uzMN1Ap9i-21" value="&lt;b&gt;X&lt;/b&gt;" style="text;html=1;strokeColor=#666666;fillColor=#f5f5f5;align=center;verticalAlign=middle;whiteSpace=wrap;rounded=0;fontSize=12;fontColor=#333333;" vertex="1" parent="R_PoujA9XYhNh4bMHHEq-6">
          <mxGeometry x="620" y="780" width="20" height="20" as="geometry" />
        </mxCell>
        <mxCell id="PhZptisgSt4uzMN1Ap9i-22" value="&lt;b&gt;X&lt;/b&gt;" style="text;html=1;strokeColor=#666666;fillColor=#f5f5f5;align=center;verticalAlign=middle;whiteSpace=wrap;rounded=0;fontSize=12;fontColor=#333333;" vertex="1" parent="R_PoujA9XYhNh4bMHHEq-6">
          <mxGeometry x="580" y="820" width="20" height="20" as="geometry" />
        </mxCell>
        <mxCell id="PhZptisgSt4uzMN1Ap9i-23" value="&lt;b&gt;X&lt;/b&gt;" style="text;html=1;strokeColor=#666666;fillColor=#f5f5f5;align=center;verticalAlign=middle;whiteSpace=wrap;rounded=0;fontSize=12;fontColor=#333333;" vertex="1" parent="R_PoujA9XYhNh4bMHHEq-6">
          <mxGeometry x="620" y="820" width="20" height="20" as="geometry" />
        </mxCell>
        <mxCell id="PhZptisgSt4uzMN1Ap9i-24" value="&lt;b&gt;X&lt;/b&gt;" style="text;html=1;strokeColor=#666666;fillColor=#f5f5f5;align=center;verticalAlign=middle;whiteSpace=wrap;rounded=0;fontSize=12;fontColor=#333333;" vertex="1" parent="R_PoujA9XYhNh4bMHHEq-6">
          <mxGeometry x="640" y="880" width="20" height="20" as="geometry" />
        </mxCell>
        <mxCell id="DQnt33tMznpBkbV948rn-0" value="Title/Diagram" style="" parent="R_PoujA9XYhNh4bMHHEq-0" />
        <mxCell id="DQnt33tMznpBkbV948rn-1" value="&lt;font style=&quot;font-size: 12px&quot;&gt;Diagram: Base System Logical Module - Qualities -&amp;nbsp;ISO-25010 Qualities Addressed - Usability&lt;/font&gt;" style="text;strokeColor=none;fillColor=none;html=1;fontSize=12;fontStyle=2;verticalAlign=middle;align=left;shadow=0;glass=0;comic=0;opacity=30;fontColor=#808080;" vertex="1" parent="DQnt33tMznpBkbV948rn-0">
          <mxGeometry x="120" y="940" width="520" height="20" as="geometry" />
        </mxCell>
        <mxCell id="R_PoujA9XYhNh4bMHHEq-1" value="About" parent="R_PoujA9XYhNh4bMHHEq-0" />
        <UserObject label="Without, uncertainty is to what organisation, department interacting with, is developed." id="ESOBvNc76D20uMSK7XI4-0">
          <mxCell style="strokeColor=#bac8d3;html=1;fontColor=#2f5b7c;fontSize=12;align=left;fontStyle=2" vertex="1" parent="R_PoujA9XYhNh4bMHHEq-1">
            <mxGeometry x="180" y="340" width="500" height="20" as="geometry" />
          </mxCell>
        </UserObject>
        <UserObject label="Without, each organisation site is different, adding navigation confusion." id="ESOBvNc76D20uMSK7XI4-1">
          <mxCell style="strokeColor=#bac8d3;html=1;fontColor=#2f5b7c;fontSize=12;align=left;fontStyle=2" vertex="1" parent="R_PoujA9XYhNh4bMHHEq-1">
            <mxGeometry x="180" y="380" width="500" height="20" as="geometry" />
          </mxCell>
        </UserObject>
        <UserObject label="UX is difficult. Build on the shoulders of giants to decrease the risk of non-delivery." id="ESOBvNc76D20uMSK7XI4-2">
          <mxCell style="strokeColor=#bac8d3;html=1;fontColor=#2f5b7c;fontSize=12;align=left;fontStyle=2" vertex="1" parent="R_PoujA9XYhNh4bMHHEq-1">
            <mxGeometry x="180" y="420" width="500" height="20" as="geometry" />
          </mxCell>
        </UserObject>
        <UserObject label="Without, screen flows are different, increasing input errors." id="ESOBvNc76D20uMSK7XI4-3">
          <mxCell style="strokeColor=#bac8d3;html=1;fontColor=#2f5b7c;fontSize=12;align=left;fontStyle=2" vertex="1" parent="R_PoujA9XYhNh4bMHHEq-1">
            <mxGeometry x="180" y="480" width="500" height="20" as="geometry" />
          </mxCell>
        </UserObject>
        <UserObject label="Without, technical gobblygook increases support call costs." id="ESOBvNc76D20uMSK7XI4-4">
          <mxCell style="strokeColor=#bac8d3;html=1;fontColor=#2f5b7c;fontSize=12;align=left;fontStyle=2" vertex="1" parent="R_PoujA9XYhNh4bMHHEq-1">
            <mxGeometry x="180" y="520" width="500" height="20" as="geometry" />
          </mxCell>
        </UserObject>
        <UserObject label="Without, records are &lt;u style=&quot;font-size: 12px;&quot;&gt;retrievable only from backups&lt;/u&gt;." id="ESOBvNc76D20uMSK7XI4-5">
          <mxCell style="strokeColor=#bac8d3;html=1;fontColor=#2f5b7c;fontSize=12;align=left;fontStyle=2" vertex="1" parent="R_PoujA9XYhNh4bMHHEq-1">
            <mxGeometry x="180" y="560" width="500" height="20" as="geometry" />
          </mxCell>
        </UserObject>
      </root>
    </mxGraphModel>
  </diagram>
</mxfile>
